{
  "accessors": [
    {
      "bufferView": 2,
      "componentType": 5126,
      "count": 9468,
      "max": [
        0.8439769744873047,
        0.24822600185871124,
        1.8963379859924316
      ],
      "min": [
        -0.8439769744873047,
        -0.22102199494838715,
        -0.001996000064536929
      ],
      "type": "VEC3"
    },
    {
      "bufferView": 2,
      "byteOffset": 113616,
      "componentType": 5126,
      "count": 9468,
      "max": [
        0.9999788999557495,
        0.9999487996101379,
        0.9999937415122986
      ],
      "min": [
        -0.9999788403511047,
        -0.999975860118866,
        -0.999996542930603
      ],
      "type": "VEC3"
    },
    {
      "bufferView": 1,
      "componentType": 5126,
      "count": 9468,
      "max": [
        0.9930689930915833,
        0.9875159859657288
      ],
      "min": [
        0.015205999836325645,
        0.006697999779134989
      ],
      "type": "VEC2"
    },
    {
      "bufferView": 0,
      "componentType": 5125,
      "count": 35148,
      "type": "SCALAR"
    }
  ],
  "asset": {
    "extras": {
      "author": "Tigerar1 (https://sketchfab.com/allanromanreyes)",
      "license": "SKETCHFAB Standard (https://sketchfab.com/licenses)",
      "source": "https://sketchfab.com/3d-models/tony-stark-iron-man-mark-vii-4059748f2f434478900405fb65418df9",
      "title": "Tony Stark - Iron Man Mark VII"
    },
    "generator": "Sketchfab-16.6.0",
    "version": "2.0"
  },
  "bufferViews": [
    {
      "buffer": 0,
      "byteLength": 140592,
      "name": "floatBufferViews",
      "target": 34963
    },
    {
      "buffer": 0,
      "byteLength": 75744,
      "byteOffset": 140592,
      "byteStride": 8,
      "name": "floatBufferViews",
      "target": 34962
    },
    {
      "buffer": 0,
      "byteLength": 227232,
      "byteOffset": 216336,
      "byteStride": 12,
      "name": "floatBufferViews",
      "target": 34962
    }
  ],
  "buffers": [
    {
      "byteLength": 443568,
      "uri": "scene.bin"
    }
  ],
  "images": [
    {
      "uri": "textures/COC_iOS_HER_TST_VII_B_baseColor.png"
    }
  ],
  "materials": [
    {
      "doubleSided": true,
      "name": "COC_iOS_HER_TST_VII_B",
      "pbrMetallicRoughness": {
        "baseColorTexture": {
          "index": 0
        },
        "metallicFactor": 0.0,
        "roughnessFactor": 0.9843491541992672
      }
    }
  ],
  "meshes": [
    {
      "name": "Object_0",
      "primitives": [
        {
          "attributes": {
            "NORMAL": 1,
            "POSITION": 0,
            "TEXCOORD_0": 2
          },
          "indices": 3,
          "material": 0,
          "mode": 4
        }
      ]
    }
  ],
  "nodes": [
    {
      "children": [
        1
      ],
      "matrix": [
        1.0,
        0.0,
        0.0,
        0.0,
        0.0,
        2.220446049250313e-16,
        -1.0,
        0.0,
        0.0,
        1.0,
        2.220446049250313e-16,
        0.0,
        0.0,
        0.0,
        0.0,
        1.0
      ],
      "name": "Sketchfab_model"
    },
    {
      "children": [
        2
      ],
      "name": "M-COC_iOS_HERO_Tony_Stark_Iron_Man_Mark_VII.obj.cleaner.materialmerger.gles"
    },
    {
      "mesh": 0,
      "name": "Object_2"
    }
  ],
  "samplers": [
    {
      "magFilter": 9729,
      "minFilter": 9987,
      "wrapS": 10497,
      "wrapT": 10497
    }
  ],
  "scene": 0,
  "scenes": [
    {
      "name": "Sketchfab_Scene",
      "nodes": [
        0
      ]
    }
  ],
  "textures": [
    {
      "sampler": 0,
      "source": 0
    }
  ]
}
